<?xml version="1.0" encoding="UTF-8" standalone="no"?>
<svg
   width="171"
   height="36"
   viewBox="0 0 171 36"
   fill="none"
   version="1.1"
   id="svg15"
   sodipodi:docname="banner.svg"
   inkscape:version="1.1.2 (0a00cf5339, 2022-02-04)"
   xmlns:inkscape="http://www.inkscape.org/namespaces/inkscape"
   xmlns:sodipodi="http://sodipodi.sourceforge.net/DTD/sodipodi-0.dtd"
   xmlns="http://www.w3.org/2000/svg"
   xmlns:svg="http://www.w3.org/2000/svg">
  <sodipodi:namedview
     id="namedview17"
     pagecolor="#ffffff"
     bordercolor="#666666"
     borderopacity="1.0"
     inkscape:pageshadow="2"
     inkscape:pageopacity="0.0"
     inkscape:pagecheckerboard="0"
     showgrid="false"
     inkscape:zoom="2.4981651"
     inkscape:cx="60.644511"
     inkscape:cy="-7.8057291"
     inkscape:window-width="1440"
     inkscape:window-height="836"
     inkscape:window-x="0"
     inkscape:window-y="0"
     inkscape:window-maximized="1"
     inkscape:current-layer="svg15" />
  <defs
     id="defs13">
    <linearGradient
       id="paint0_linear_120_1360"
       x1="15"
       y1="3"
       x2="15"
       y2="33"
       gradientUnits="userSpaceOnUse">
      <stop
         stop-color="#877EFF"
         id="stop6" />
      <stop
         offset="0.461458"
         stop-color="#685DFF"
         id="stop8" />
      <stop
         offset="1"
         stop-color="#3121FF"
         id="stop10" />
    </linearGradient>
  </defs>
  <path
     style="fill:#ff0000;stroke-width:0.0894341"
     d=""
     id="path95" />
  <g
     id="g3630">
    <text
       xml:space="preserve"
       style="font-style:normal;font-weight:normal;font-size:30.1367px;line-height:1.25;font-family:sans-serif;fill:#007aa8;fill-opacity:1;stroke:none;stroke-width:0.753422"
       x="32.72797"
       y="27.632084"
       id="text3046"
       inkscape:export-filename="/mnt/Store/ACADEMIC/MCA/VSG/Synapse.png"
       inkscape:export-xdpi="96"
       inkscape:export-ydpi="96"><tspan
         sodipodi:role="line"
         id="tspan3044"
         style="font-style:normal;font-variant:normal;font-weight:normal;font-stretch:normal;font-family:aakar;-inkscape-font-specification:aakar;fill:#007aa8;fill-opacity:1;stroke-width:0.753422"
         x="32.72797"
         y="27.632084">SYNAPSE</tspan></text>
    <path
       id="path28375"
       style="fill:#007aa8;fill-opacity:1;stroke-width:0.0571772"
       d="m 27.818431,20.626167 h -5.05017 v 0.08005 c 0,0.11353 -0.002,0.226361 -0.006,0.338438 -0.0039,0.11208 -0.0099,0.22339 -0.01767,0.333884 -0.0078,0.110493 -0.01754,0.220183 -0.0291,0.328955 -0.01155,0.10877 -0.02495,0.216646 -0.04017,0.323562 -0.01522,0.106913 -0.03226,0.212873 -0.05104,0.317797 -0.01878,0.104922 -0.03929,0.208773 -0.06155,0.311566 -0.02226,0.102797 -0.04623,0.204527 -0.07187,0.305061 -0.02564,0.10053 -0.0529,0.199858 -0.08182,0.297993 -0.02892,0.09813 -0.05947,0.195047 -0.09158,0.290647 -0.03211,0.0956 -0.06577,0.189908 -0.100974,0.282838 -0.03521,0.09293 -0.07197,0.184525 -0.110177,0.274656 -0.03821,0.09013 -0.0779,0.178816 -0.119012,0.266008 -0.04111,0.08719 -0.08364,0.172873 -0.127565,0.256989 -0.04392,0.08412 -0.0892,0.166691 -0.13584,0.2476 -0.04664,0.0809 -0.09467,0.160186 -0.143931,0.237747 -0.04926,0.07756 -0.09976,0.153339 -0.151552,0.227422 -0.02589,0.03704 -0.05215,0.07366 -0.07866,0.109803 -0.02651,0.03615 -0.05332,0.07188 -0.08043,0.107111 -0.02711,0.03523 -0.05449,0.07002 -0.08219,0.104319 -0.0277,0.03431 -0.05568,0.06808 -0.08396,0.101441 -0.02828,0.03336 -0.05688,0.06626 -0.08573,0.09865 -0.02885,0.03239 -0.058,0.06435 -0.0874,0.09577 -0.0294,0.03141 -0.05903,0.06229 -0.08898,0.0927 -0.02994,0.03042 -0.06018,0.06031 -0.09065,0.08972 -0.03048,0.0294 -0.06124,0.05828 -0.09223,0.08665 -0.031,0.02837 -0.06222,0.05626 -0.09372,0.08359 -0.0315,0.02733 -0.0633,0.05416 -0.0953,0.08043 -0.032,0.02626 -0.06421,0.05199 -0.0967,0.07717 -0.03249,0.02518 -0.06523,0.04974 -0.09819,0.07382 -0.03296,0.02408 -0.06616,0.0476 -0.09958,0.07057 -0.03342,0.02296 -0.06702,0.04539 -0.10088,0.06723 -0.03387,0.02184 -0.06797,0.04309 -0.102276,0.06378 -0.0343,0.02068 -0.06885,0.04083 -0.103577,0.06034 -0.03473,0.01952 -0.06965,0.03847 -0.104785,0.05681 -0.03514,0.01834 -0.07045,0.03605 -0.105995,0.05318 -0.03554,0.01715 -0.07127,0.03364 -0.107203,0.04956 -0.03593,0.01592 -0.0721,0.03125 -0.108412,0.04593 -0.03631,0.01468 -0.07276,0.02877 -0.109435,0.04221 -0.03667,0.01344 -0.07352,0.02623 -0.110549,0.0384 -0.03703,0.01216 -0.0743,0.0237 -0.111668,0.03459 -0.03737,0.01088 -0.07489,0.0211 -0.112595,0.03068 -0.0377,0.0096 -0.0755,0.01851 -0.113526,0.02678 -0.03802,0.0083 -0.07622,0.01585 -0.114548,0.02278 -0.03833,0.0069 -0.07686,0.01321 -0.115478,0.01878 -0.03862,0.0056 -0.07732,0.01049 -0.116222,0.01468 -0.0389,0.0042 -0.07798,0.0077 -0.117151,0.01051 -0.03918,0.0028 -0.07846,0.005 -0.117897,0.0064 -0.03944,0.0014 -0.07905,0.0021 -0.118732,0.0021 -0.03968,0 -0.0792,-7.19e-4 -0.118639,-0.0021 -0.03944,-0.0014 -0.07881,-0.0036 -0.117988,-0.0064 -0.03918,-0.0028 -0.07815,-0.0063 -0.11706,-0.01051 -0.0389,-0.0042 -0.07769,-0.0091 -0.116314,-0.01468 -0.03862,-0.0056 -0.07715,-0.01186 -0.115478,-0.01878 -0.03833,-0.0069 -0.07644,-0.01452 -0.114456,-0.02278 -0.03802,-0.0083 -0.07592,-0.0172 -0.113618,-0.02678 -0.0377,-0.0096 -0.07522,-0.0198 -0.112595,-0.03068 -0.03737,-0.01089 -0.07455,-0.02242 -0.111574,-0.03459 -0.03703,-0.01216 -0.07388,-0.02497 -0.110551,-0.0384 -0.03668,-0.01344 -0.07322,-0.02752 -0.109526,-0.04221 -0.03631,-0.01468 -0.07239,-0.03002 -0.108319,-0.04593 -0.03593,-0.01592 -0.07175,-0.03242 -0.107297,-0.04956 -0.03554,-0.01713 -0.07085,-0.03485 -0.105994,-0.05318 -0.03514,-0.01834 -0.07006,-0.03728 -0.104785,-0.05681 -0.03473,-0.01952 -0.06928,-0.03966 -0.103578,-0.06034 -0.0343,-0.02069 -0.06841,-0.04194 -0.102275,-0.06378 -0.03387,-0.02183 -0.06746,-0.04426 -0.100881,-0.06723 -0.03342,-0.02297 -0.06662,-0.04649 -0.09958,-0.07057 -0.03296,-0.02408 -0.0657,-0.04864 -0.09818,-0.07382 -0.03248,-0.02518 -0.0647,-0.05091 -0.0967,-0.07717 -0.032,-0.02626 -0.0638,-0.0531 -0.0953,-0.08043 -0.0315,-0.02733 -0.06272,-0.05522 -0.09372,-0.08359 -0.031,-0.02837 -0.06176,-0.05725 -0.09224,-0.08665 -0.03048,-0.02941 -0.06061,-0.0593 -0.09056,-0.08972 -0.02995,-0.03042 -0.05967,-0.06129 -0.08907,-0.0927 -0.0294,-0.03142 -0.05855,-0.06337 -0.0874,-0.09577 -0.02885,-0.0324 -0.05735,-0.06529 -0.08563,-0.09865 -0.02828,-0.03336 -0.05635,-0.06713 -0.08405,-0.101441 -0.0277,-0.0343 -0.05508,-0.06909 -0.08219,-0.104319 -0.02711,-0.03523 -0.05391,-0.07096 -0.08042,-0.107111 -0.02651,-0.03615 -0.05267,-0.07276 -0.07856,-0.109803 -0.05179,-0.07408 -0.102387,-0.14986 -0.151648,-0.227422 -0.04926,-0.07756 -0.0972,-0.156843 -0.143835,-0.237747 -0.04664,-0.08091 -0.09201,-0.163479 -0.135934,-0.2476 -0.04392,-0.08412 -0.08645,-0.1698 -0.127565,-0.256989 -0.04111,-0.08719 -0.0808,-0.17588 -0.119011,-0.266008 -0.0382,-0.09013 -0.07488,-0.181722 -0.110086,-0.274656 -0.0352,-0.09293 -0.06886,-0.187234 -0.100974,-0.282838 -0.03211,-0.0956 -0.06266,-0.192513 -0.09158,-0.290647 -0.02892,-0.09813 -0.05628,-0.197463 -0.08191,-0.297993 -0.02564,-0.100534 -0.04961,-0.202264 -0.07187,-0.305061 -0.02226,-0.102793 -0.04277,-0.206644 -0.06155,-0.311566 -0.01879,-0.104924 -0.03583,-0.210884 -0.05105,-0.317797 -0.01522,-0.106916 -0.02861,-0.214792 -0.04017,-0.323562 -0.01155,-0.108772 -0.0213,-0.218462 -0.0291,-0.328955 -0.0078,-0.110494 -0.01361,-0.221804 -0.01757,-0.333884 -0.0039,-0.112077 -0.006,-0.224908 -0.006,-0.338438 v -0.08005 H 8.5492018 v 2.004503 c 0,5.337584 4.2970322,9.634709 9.6346142,9.634709 5.337581,0 9.634615,-4.297125 9.634615,-9.634709 z" />
    <path
       id="path28371"
       style="fill:#007aa8;fill-opacity:1;stroke-width:0.0571772"
       d="m 18.183816,3.5158834 c -5.337582,0 -9.6346142,4.2970313 -9.6346142,9.6346146 v 2.004596 h 5.0502622 v -0.08005 c 0,-0.11353 0.002,-0.22636 0.006,-0.338439 0.0039,-0.112079 0.0098,-0.223481 0.01757,-0.333975 0.0078,-0.110493 0.01755,-0.220091 0.0291,-0.328862 0.01155,-0.108772 0.02495,-0.216648 0.04017,-0.323562 0.01522,-0.106915 0.03226,-0.212875 0.05105,-0.317797 0.01878,-0.104924 0.03929,-0.208866 0.06155,-0.311661 0.02226,-0.102795 0.04623,-0.204435 0.07187,-0.304967 0.02563,-0.100533 0.05299,-0.19995 0.08191,-0.298086 0.02892,-0.09814 0.05947,-0.195047 0.09158,-0.290648 0.03211,-0.0956 0.06577,-0.189905 0.100974,-0.282837 0.03521,-0.09293 0.07188,-0.184432 0.110086,-0.274563 0.03821,-0.09013 0.0779,-0.178818 0.119011,-0.266009 0.04111,-0.08719 0.08364,-0.172872 0.127565,-0.25699 0.04392,-0.08412 0.08929,-0.166691 0.135934,-0.247599 0.04664,-0.08091 0.09457,-0.160181 0.143835,-0.237744 0.04926,-0.07756 0.09986,-0.153434 0.151648,-0.227516 0.02589,-0.03704 0.05206,-0.07366 0.07856,-0.109806 0.02651,-0.03614 0.05331,-0.07179 0.08042,-0.107017 0.02711,-0.03523 0.05449,-0.07002 0.08219,-0.104321 0.0277,-0.0343 0.05577,-0.06817 0.08405,-0.101532 0.02828,-0.033358 0.05679,-0.066161 0.08563,-0.098557 0.02885,-0.032395 0.058,-0.064352 0.0874,-0.095767 0.0294,-0.031414 0.05913,-0.062374 0.08907,-0.092791 0.02994,-0.030418 0.06008,-0.060319 0.09056,-0.089724 0.03048,-0.029403 0.06124,-0.058281 0.09224,-0.086655 0.031,-0.028374 0.06222,-0.056169 0.09372,-0.083494 0.0315,-0.027327 0.0633,-0.054166 0.0953,-0.080425 0.032,-0.026261 0.06421,-0.051991 0.0967,-0.077171 0.03249,-0.02518 0.06523,-0.049835 0.09818,-0.073917 0.03296,-0.024081 0.06616,-0.047605 0.09958,-0.07057 0.03342,-0.022965 0.06702,-0.045389 0.100881,-0.067223 0.03386,-0.021834 0.06797,-0.043099 0.102275,-0.063782 0.0343,-0.020686 0.06885,-0.04073 0.103578,-0.06025 0.03473,-0.019518 0.06964,-0.038474 0.104785,-0.056809 0.03514,-0.018336 0.07045,-0.036046 0.105994,-0.053183 0.03554,-0.017129 0.07137,-0.03373 0.107297,-0.04965 0.03593,-0.015923 0.07201,-0.031152 0.108319,-0.045838 0.03631,-0.014682 0.07285,-0.028777 0.109526,-0.042212 0.03667,-0.01344 0.07352,-0.026232 0.110551,-0.0384 0.03703,-0.012163 0.0742,-0.023704 0.111574,-0.034588 0.03737,-0.010885 0.07489,-0.0211 0.112596,-0.030683 0.0377,-0.00959 0.0756,-0.018512 0.113617,-0.026777 0.03802,-0.00826 0.07613,-0.015941 0.114456,-0.022873 0.03833,-0.00693 0.07686,-0.013116 0.115478,-0.018688 0.03862,-0.00558 0.07741,-0.01048 0.116315,-0.014691 0.03891,-0.00421 0.07788,-0.00777 0.117059,-0.010599 0.03918,-0.00282 0.07855,-0.0049 0.117988,-0.00632 0.03944,-0.00144 0.07896,-0.00214 0.118639,-0.00214 0.03968,0 0.0793,7.197e-4 0.118733,0.00214 0.03944,0.00144 0.07872,0.00351 0.117896,0.00632 0.03918,0.00282 0.07825,0.00639 0.117151,0.010599 0.03891,0.00421 0.0776,0.00911 0.116223,0.014691 0.03862,0.00558 0.07715,0.011767 0.115478,0.018688 0.03833,0.00693 0.07653,0.014612 0.114547,0.022873 0.03802,0.00826 0.07582,0.017201 0.113526,0.026777 0.0377,0.00959 0.07522,0.019798 0.112596,0.030683 0.03737,0.010885 0.07464,0.02242 0.111667,0.034588 0.03703,0.012163 0.07388,0.024963 0.11055,0.0384 0.03667,0.01344 0.07313,0.027524 0.109434,0.042212 0.03631,0.014682 0.07248,0.029918 0.108412,0.045838 0.03593,0.015923 0.07166,0.032514 0.107204,0.04965 0.03554,0.017129 0.07085,0.034847 0.105994,0.053183 0.03514,0.018336 0.07006,0.037291 0.104785,0.056809 0.03473,0.01952 0.06928,0.039563 0.103578,0.06025 0.0343,0.020684 0.06841,0.041949 0.102275,0.063782 0.03386,0.021834 0.06746,0.044257 0.100881,0.067223 0.03342,0.022965 0.06662,0.046489 0.09958,0.07057 0.03296,0.024083 0.0657,0.048737 0.09819,0.073917 0.03248,0.02518 0.0647,0.05091 0.0967,0.077171 0.032,0.02626 0.0638,0.053099 0.0953,0.080425 0.0315,0.027325 0.06272,0.05512 0.09372,0.083494 0.03099,0.028374 0.06176,0.057252 0.09223,0.086655 0.03048,0.029405 0.06071,0.059306 0.09065,0.089724 0.02995,0.030417 0.05958,0.061377 0.08898,0.092791 0.0294,0.031415 0.05855,0.063372 0.0874,0.095767 0.02885,0.032395 0.05745,0.065199 0.08573,0.098557 0.02828,0.03336 0.05626,0.06723 0.08396,0.101532 0.0277,0.0343 0.05508,0.06909 0.08219,0.104321 0.02711,0.03523 0.05392,0.07087 0.08043,0.107017 0.02651,0.03615 0.05277,0.07277 0.07866,0.109806 0.05179,0.07408 0.10229,0.149955 0.151553,0.227516 0.04926,0.07756 0.09729,0.156838 0.14393,0.237744 0.04664,0.08091 0.09192,0.163483 0.13584,0.247599 0.04392,0.08412 0.08645,0.1698 0.127565,0.25699 0.04111,0.08719 0.08081,0.17588 0.119012,0.266009 0.03821,0.09013 0.07497,0.181629 0.110177,0.274563 0.03521,0.09293 0.06886,0.187236 0.100975,0.282837 0.03211,0.0956 0.06266,0.192513 0.09158,0.290648 0.02892,0.09814 0.05618,0.197553 0.08182,0.298086 0.02564,0.100532 0.04961,0.202172 0.07187,0.304967 0.02226,0.102795 0.04277,0.206737 0.06155,0.311661 0.01879,0.104922 0.03583,0.210882 0.05104,0.317797 0.01522,0.106914 0.02861,0.21479 0.04017,0.323562 0.01155,0.108771 0.0213,0.218369 0.0291,0.328862 0.0078,0.110494 0.01371,0.221896 0.01767,0.333975 0.0039,0.112079 0.006,0.224909 0.006,0.338439 v 0.08005 h 5.050163 v -2.004596 c 0,-5.3375833 -4.297034,-9.6346146 -9.634615,-9.6346146 z" />
  </g>
</svg>
