<?xml version="1.0" encoding="UTF-8" standalone="no"?>
<!-- Created with Inkscape (http://www.inkscape.org/) -->

<svg
   width="589.1402mm"
   height="589.1402mm"
   viewBox="0 0 589.14019 589.1402"
   version="1.1"
   id="svg5"
   inkscape:version="1.1.2 (0a00cf5339, 2022-02-04)"
   sodipodi:docname="icon.svg"
   xmlns:inkscape="http://www.inkscape.org/namespaces/inkscape"
   xmlns:sodipodi="http://sodipodi.sourceforge.net/DTD/sodipodi-0.dtd"
   xmlns="http://www.w3.org/2000/svg"
   xmlns:svg="http://www.w3.org/2000/svg">
  <sodipodi:namedview
     id="namedview7"
     pagecolor="#ffffff"
     bordercolor="#666666"
     borderopacity="1.0"
     inkscape:pageshadow="2"
     inkscape:pageopacity="0.0"
     inkscape:pagecheckerboard="0"
     inkscape:document-units="mm"
     showgrid="false"
     inkscape:zoom="0.18898898"
     inkscape:cx="801.63404"
     inkscape:cy="685.22514"
     inkscape:window-width="1440"
     inkscape:window-height="836"
     inkscape:window-x="0"
     inkscape:window-y="0"
     inkscape:window-maximized="1"
     inkscape:current-layer="layer1" />
  <defs
     id="defs2" />
  <g
     inkscape:label="Layer 1"
     inkscape:groupmode="layer"
     id="layer1"
     transform="translate(-162.66747,33.894451)">
    <rect
       style="fill:#000000;fill-rule:evenodd;stroke-width:5.06132;stroke-linecap:round;stroke-linejoin:round;paint-order:fill markers stroke"
       id="rect850"
       width="589.1402"
       height="589.1402"
       x="162.66747"
       y="-33.894451"
       ry="294.5701" />
    <path
       style="fill:#ffffff;stroke-width:1.46783"
       d=""
       id="path95" />
    <g
       id="g1077"
       transform="matrix(1.0759126,0,0,1.0644997,-34.710106,-16.813506)">
      <path
         id="path28375"
         style="fill:#ffffff;fill-opacity:1;stroke-width:0.938416"
         d="m 615.36476,290.77216 h -82.88542 v 1.31387 c 0,1.86329 -0.0331,3.71512 -0.0977,5.55458 -0.0647,1.83949 -0.16183,3.66636 -0.28998,5.47984 -0.12787,1.81344 -0.28792,3.61371 -0.47762,5.39893 -0.18958,1.78518 -0.40951,3.55569 -0.65925,5.31043 -0.24982,1.75471 -0.52943,3.49377 -0.83775,5.21581 -0.30829,1.72202 -0.64493,3.42647 -1.01021,5.11356 -0.36534,1.68715 -0.75882,3.35678 -1.17959,5.00678 -0.42077,1.64994 -0.8682,3.28015 -1.34286,4.89078 -0.47466,1.61061 -0.97607,3.20119 -1.50309,4.77022 -0.52701,1.56908 -1.07942,3.11685 -1.65723,4.64205 -0.5778,1.52527 -1.18121,3.0285 -1.80827,4.50776 -0.62707,1.47923 -1.27852,2.9348 -1.95327,4.36584 -0.67475,1.43097 -1.37277,2.83726 -2.09365,4.2178 -0.72088,1.38063 -1.46399,2.7358 -2.22946,4.06372 -0.76549,1.32783 -1.55376,2.62902 -2.36225,3.90198 -0.80852,1.273 -1.63736,2.51667 -2.48734,3.73255 -0.42499,0.60792 -0.85594,1.20891 -1.291,1.80213 -0.43506,0.59334 -0.87503,1.17971 -1.31998,1.75796 -0.44498,0.57822 -0.8943,1.14914 -1.34897,1.71213 -0.45464,0.5631 -0.91379,1.11734 -1.37794,1.66488 -0.46415,0.54748 -0.93352,1.08742 -1.40697,1.61911 -0.47345,0.53168 -0.95186,1.05609 -1.43443,1.57174 -0.48254,0.51559 -0.96887,1.02226 -1.46036,1.52145 -0.49146,0.49923 -0.98767,0.9899 -1.48785,1.47253 -0.5002,0.4826 -1.00507,0.95655 -1.51377,1.4222 -0.50874,0.46566 -1.02117,0.92334 -1.5382,1.37189 -0.51704,0.44847 -1.03891,0.88896 -1.56413,1.32 -0.52518,0.43099 -1.05391,0.85326 -1.58701,1.2665 -0.53318,0.41333 -1.07054,0.81641 -1.61146,1.21166 -0.54086,0.39525 -1.08586,0.78129 -1.63432,1.15821 -0.54845,0.37689 -1.09989,0.74503 -1.65569,1.10334 -0.55581,0.35841 -1.1156,0.70724 -1.67858,1.0468 -0.56299,0.33947 -1.13001,0.67006 -1.69997,0.99039 -0.56998,0.3204 -1.14303,0.63138 -1.71977,0.93231 -0.57674,0.30097 -1.15629,0.59163 -1.73962,0.8729 -0.58333,0.28142 -1.16973,0.55206 -1.75946,0.81333 -0.58971,0.26134 -1.18337,0.51284 -1.77931,0.75387 -0.59591,0.24096 -1.19415,0.47223 -1.79608,0.69279 -0.6019,0.22059 -1.20667,0.43048 -1.81439,0.63019 -0.60772,0.19962 -1.2194,0.38902 -1.83273,0.56771 -0.61336,0.17865 -1.2292,0.34626 -1.84796,0.50354 -0.61879,0.15739 -1.23921,0.30386 -1.86323,0.43949 -0.62399,0.13554 -1.25096,0.26015 -1.88,0.37393 -0.62904,0.11369 -1.26139,0.21675 -1.89527,0.30823 -0.63389,0.0915 -1.26895,0.17216 -1.9075,0.24096 -0.63852,0.0688 -1.27975,0.12609 -1.92273,0.17246 -0.64298,0.0461 -1.2877,0.0821 -1.93496,0.10512 -0.64723,0.0236 -1.29738,0.0351 -1.94869,0.0351 -0.6513,0 -1.29989,-0.0118 -1.94715,-0.0351 -0.64723,-0.0236 -1.29349,-0.0585 -1.93647,-0.10512 -0.64297,-0.0461 -1.28267,-0.10336 -1.92122,-0.17246 -0.63852,-0.0688 -1.27512,-0.14971 -1.909,-0.24096 -0.63389,-0.0915 -1.26623,-0.1946 -1.89527,-0.30823 -0.62904,-0.11369 -1.25448,-0.2383 -1.8785,-0.37393 -0.62399,-0.13554 -1.246,-0.28231 -1.86474,-0.43949 -0.61879,-0.1574 -1.23463,-0.32495 -1.84796,-0.50354 -0.61339,-0.17866 -1.22347,-0.36791 -1.83119,-0.56771 -0.60775,-0.19962 -1.21252,-0.40972 -1.81442,-0.63019 -0.60193,-0.22059 -1.20168,-0.45174 -1.79759,-0.69279 -0.59596,-0.24097 -1.18806,-0.49262 -1.77777,-0.75387 -0.58973,-0.26133 -1.17767,-0.53206 -1.761,-0.81333 -0.58333,-0.28112 -1.16287,-0.57193 -1.73962,-0.8729 -0.57674,-0.30093 -1.14982,-0.61191 -1.71977,-0.93231 -0.57001,-0.32033 -1.13698,-0.65092 -1.69996,-0.99039 -0.56299,-0.33956 -1.12278,-0.68839 -1.67859,-1.0468 -0.5558,-0.35831 -1.10724,-0.72645 -1.65569,-1.10334 -0.54846,-0.37692 -1.09343,-0.76296 -1.63435,-1.15821 -0.54086,-0.39525 -1.07827,-0.79833 -1.61143,-1.21166 -0.53313,-0.41324 -1.06183,-0.83551 -1.58701,-1.2665 -0.52521,-0.43104 -1.04712,-0.87153 -1.56416,-1.32 -0.51706,-0.44855 -1.02946,-0.90623 -1.53816,-1.37189 -0.50877,-0.46565 -1.01361,-0.9396 -1.51381,-1.4222 -0.50017,-0.48263 -0.99482,-0.9733 -1.48628,-1.47253 -0.4915,-0.49919 -0.97935,-1.00586 -1.4619,-1.52145 -0.48257,-0.51565 -0.96098,-1.04006 -1.43443,-1.57174 -0.47345,-0.53169 -0.94129,-1.07163 -1.40543,-1.61911 -0.46415,-0.54754 -0.92487,-1.10178 -1.37951,-1.66488 -0.45467,-0.56299 -0.90402,-1.13391 -1.34897,-1.71213 -0.44498,-0.57825 -0.88488,-1.16462 -1.31997,-1.75796 -0.43506,-0.59322 -0.86445,-1.19421 -1.28944,-1.80213 -0.84998,-1.21588 -1.68042,-2.45955 -2.48891,-3.73255 -0.80852,-1.27296 -1.59522,-2.57415 -2.36068,-3.90198 -0.76547,-1.32792 -1.51012,-2.68309 -2.231,-4.06372 -0.72087,-1.38054 -1.4189,-2.78683 -2.09365,-4.2178 -0.67475,-1.43104 -1.3262,-2.88661 -1.95326,-4.36584 -0.62704,-1.47926 -1.22897,-2.98249 -1.80677,-4.50776 -0.57781,-1.5252 -1.13019,-3.07297 -1.65724,-4.64205 -0.52698,-1.56903 -1.02842,-3.15961 -1.50308,-4.77022 -0.47469,-1.61063 -0.92366,-3.24084 -1.3444,-4.89078 -0.42077,-1.65 -0.81428,-3.31963 -1.17956,-5.00678 -0.36534,-1.68709 -0.70192,-3.39154 -1.01021,-5.11356 -0.30832,-1.72204 -0.58805,-3.4611 -0.83778,-5.21581 -0.24982,-1.75474 -0.46958,-3.52525 -0.65922,-5.31043 -0.18958,-1.78522 -0.34965,-3.58549 -0.47764,-5.39893 -0.12786,-1.81348 -0.22345,-3.64035 -0.28841,-5.47984 -0.0647,-1.83946 -0.0977,-3.69129 -0.0977,-5.55458 v -1.31387 h -82.88683 v 32.89872 c 0,87.60257 70.52463,158.12873 158.12718,158.12873 87.60254,0 158.12719,-70.52616 158.12719,-158.12873 z" />
      <path
         id="path28371"
         style="fill:#ffffff;fill-opacity:1;stroke-width:0.938416"
         d="m 457.23757,39.551683 c -87.60255,0 -158.12718,70.524617 -158.12718,158.127217 v 32.90025 h 82.88695 v -1.31388 c 0,-1.86329 0.033,-3.7151 0.0976,-5.55459 0.0647,-1.83948 0.16026,-3.66786 0.28842,-5.48133 0.12786,-1.81345 0.28794,-3.61223 0.47763,-5.39742 0.18958,-1.78521 0.40946,-3.55572 0.65923,-5.31043 0.24982,-1.75474 0.52946,-3.49379 0.83778,-5.21581 0.30829,-1.72205 0.64487,-3.42799 1.01021,-5.11511 0.36528,-1.68712 0.75879,-3.35526 1.17956,-5.00523 0.42074,-1.65 0.86971,-3.28168 1.3444,-4.89231 0.47465,-1.61063 0.9761,-3.2012 1.50308,-4.77023 0.52705,-1.56906 1.07943,-3.11682 1.65723,-4.64205 0.57781,-1.52526 1.17974,-3.02697 1.80677,-4.50623 0.62707,-1.47923 1.27852,-2.93484 1.95327,-4.36585 0.67475,-1.431 1.37277,-2.83725 2.09365,-4.21782 0.72088,-1.38054 1.46553,-2.73581 2.23099,-4.0637 0.76547,-1.32786 1.55217,-2.62895 2.36069,-3.90194 0.80849,-1.27297 1.63892,-2.51823 2.4889,-3.73409 0.42499,-0.60793 0.85438,-1.20894 1.28944,-1.80219 0.43509,-0.59322 0.875,-1.17816 1.31998,-1.75641 0.44495,-0.57828 0.8943,-1.14915 1.34897,-1.71215 0.45464,-0.56303 0.91536,-1.11891 1.37951,-1.66638 0.46414,-0.54749 0.93198,-1.08587 1.40543,-1.61755 0.47345,-0.53168 0.95186,-1.05618 1.43443,-1.57177 0.48254,-0.51558 0.9704,-1.02371 1.46189,-1.52293 0.49146,-0.49923 0.98612,-0.98997 1.48629,-1.47258 0.5002,-0.48257 1.00504,-0.95653 1.5138,-1.42221 0.50871,-0.46568 1.02111,-0.92187 1.53817,-1.37034 0.51704,-0.4485 1.03894,-0.889 1.56416,-1.31998 0.52518,-0.43101 1.05388,-0.8533 1.58701,-1.26657 0.53316,-0.41327 1.07056,-0.8179 1.61143,-1.21316 0.54092,-0.39522 1.08589,-0.7813 1.63435,-1.15822 0.54845,-0.37692 1.09989,-0.74494 1.65569,-1.10329 0.55581,-0.35834 1.1156,-0.70735 1.67858,-1.04682 0.56299,-0.33951 1.12995,-0.66848 1.69997,-0.98884 0.56995,-0.32034 1.14303,-0.63145 1.71977,-0.93238 0.57674,-0.30094 1.15629,-0.5916 1.73962,-0.87287 0.58333,-0.28112 1.17126,-0.55359 1.761,-0.81488 0.58971,-0.26134 1.1818,-0.51128 1.77777,-0.75231 0.59591,-0.24096 1.19566,-0.4723 1.79759,-0.69279 0.6019,-0.22059 1.20667,-0.43053 1.81442,-0.63023 0.60771,-0.19962 1.2178,-0.38904 1.83119,-0.56767 0.61333,-0.17866 1.22917,-0.3463 1.84796,-0.50358 0.61873,-0.15739 1.24075,-0.30382 1.86474,-0.43948 0.62402,-0.13554 1.24945,-0.26163 1.87849,-0.37539 0.62904,-0.11369 1.26139,-0.21528 1.89527,-0.30673 0.63389,-0.0915 1.27049,-0.17201 1.90901,-0.24111 0.63854,-0.0691 1.27824,-0.1276 1.92122,-0.17396 0.64298,-0.0463 1.28924,-0.0804 1.93647,-0.10376 0.64726,-0.0236 1.29584,-0.0351 1.94715,-0.0351 0.6513,0 1.30146,0.0118 1.94869,0.0351 0.64726,0.0236 1.29198,0.0577 1.93496,0.10376 0.64297,0.0463 1.28421,0.10486 1.92273,0.17396 0.63855,0.0691 1.27361,0.14957 1.90749,0.24111 0.63389,0.0915 1.26623,0.19312 1.89527,0.30673 0.62904,0.11368 1.25602,0.23981 1.88001,0.37539 0.62402,0.13554 1.24444,0.2823 1.86323,0.43948 0.61876,0.15739 1.2346,0.32492 1.84796,0.50358 0.61333,0.17865 1.22501,0.36796 1.83273,0.56767 0.60772,0.19962 1.21248,0.4097 1.81439,0.63023 0.60193,0.22059 1.20017,0.45174 1.79608,0.69279 0.59593,0.24096 1.1896,0.49103 1.7793,0.75231 0.58974,0.26134 1.17614,0.53364 1.75947,0.81488 0.58333,0.28112 1.16287,0.57193 1.73962,0.87287 0.57674,0.30093 1.14979,0.61204 1.71977,0.93238 0.56995,0.32036 1.13698,0.64933 1.69996,0.98884 0.56299,0.33947 1.12278,0.68848 1.67859,1.04682 0.5558,0.35835 1.10724,0.72637 1.65569,1.10329 0.54846,0.37692 1.09345,0.763 1.63432,1.15822 0.54092,0.39526 1.07827,0.79989 1.61146,1.21316 0.5331,0.41327 1.06183,0.83556 1.58701,1.26657 0.52521,0.43098 1.04709,0.87148 1.56413,1.31998 0.51703,0.44847 1.02946,0.90466 1.53819,1.37034 0.50871,0.46568 1.01358,0.93964 1.51378,1.42221 0.50017,0.48261 0.99639,0.97335 1.48785,1.47258 0.49149,0.49922 0.97781,1.00735 1.46036,1.52293 0.48257,0.51559 0.96098,1.04009 1.43443,1.57177 0.47345,0.53168 0.94282,1.07006 1.40697,1.61755 0.46414,0.54747 0.9233,1.10335 1.37794,1.66638 0.45467,0.563 0.90399,1.13387 1.34897,1.71215 0.44495,0.57825 0.88491,1.16319 1.31997,1.75641 0.43506,0.59325 0.86602,1.19426 1.29101,1.80219 0.84998,1.21586 1.67882,2.46112 2.48734,3.73409 0.80849,1.27299 1.59675,2.57408 2.36225,3.90194 0.76547,1.32789 1.50858,2.68316 2.22946,4.0637 0.72087,1.38057 1.4189,2.78682 2.09365,4.21782 0.67475,1.43101 1.3262,2.88662 1.95326,4.36585 0.62707,1.47926 1.23047,2.98097 1.80828,4.50623 0.57781,1.52523 1.13022,3.07299 1.65723,4.64205 0.52702,1.56903 1.02843,3.1596 1.50309,4.77023 0.47466,1.61063 0.92209,3.24231 1.34286,4.89231 0.42077,1.64997 0.81425,3.31811 1.17959,5.00523 0.36528,1.68712 0.70192,3.39306 1.01021,5.11511 0.30832,1.72202 0.58802,3.46107 0.83775,5.21581 0.24982,1.75471 0.46961,3.52522 0.65925,5.31043 0.18958,1.78519 0.34963,3.58397 0.47761,5.39742 0.12787,1.81347 0.22502,3.64185 0.28998,5.48133 0.0647,1.83949 0.0978,3.6913 0.0978,5.55459 v 1.31388 h 82.8853 V 197.6789 c 0,-87.6026 -70.52465,-158.127217 -158.12719,-158.127217 z" />
    </g>
  </g>
</svg>
