<?xml version="1.0" encoding="UTF-8" standalone="no"?>
<!-- Created with Inkscape (http://www.inkscape.org/) -->

<svg
   width="1408.0571mm"
   height="2675.8459mm"
   viewBox="0 0 1408.0571 2675.8459"
   version="1.1"
   id="svg5"
   inkscape:version="1.1.2 (0a00cf5339, 2022-02-04)"
   sodipodi:docname="side-img.svg"
   xmlns:inkscape="http://www.inkscape.org/namespaces/inkscape"
   xmlns:sodipodi="http://sodipodi.sourceforge.net/DTD/sodipodi-0.dtd"
   xmlns:xlink="http://www.w3.org/1999/xlink"
   xmlns="http://www.w3.org/2000/svg"
   xmlns:svg="http://www.w3.org/2000/svg">
  <sodipodi:namedview
     id="namedview7"
     pagecolor="#ffffff"
     bordercolor="#666666"
     borderopacity="1.0"
     inkscape:pageshadow="2"
     inkscape:pageopacity="0.0"
     inkscape:pagecheckerboard="0"
     inkscape:document-units="mm"
     showgrid="false"
     inkscape:zoom="0.026742151"
     inkscape:cx="3814.2032"
     inkscape:cy="4505.995"
     inkscape:window-width="1440"
     inkscape:window-height="836"
     inkscape:window-x="0"
     inkscape:window-y="0"
     inkscape:window-maximized="1"
     inkscape:current-layer="layer1" />
  <defs
     id="defs2">
    <linearGradient
       inkscape:collect="always"
       id="linearGradient5946">
      <stop
         style="stop-color:#007aa8;stop-opacity:1;"
         offset="0"
         id="stop5942" />
      <stop
         style="stop-color:#007aa8;stop-opacity:0"
         offset="1"
         id="stop5944" />
    </linearGradient>
    <inkscape:path-effect
       effect="bspline"
       id="path-effect1012"
       is_visible="true"
       lpeversion="1"
       weight="33.333333"
       steps="2"
       helper_size="0"
       apply_no_weight="true"
       apply_with_weight="true"
       only_selected="false" />
    <inkscape:path-effect
       effect="bspline"
       id="path-effect1350"
       is_visible="true"
       lpeversion="1"
       weight="33.333333"
       steps="2"
       helper_size="0"
       apply_no_weight="true"
       apply_with_weight="true"
       only_selected="false" />
    <linearGradient
       inkscape:collect="always"
       xlink:href="#linearGradient5946"
       id="linearGradient5948"
       x1="-735.77026"
       y1="101.40186"
       x2="2357.6106"
       y2="101.40186"
       gradientUnits="userSpaceOnUse" />
  </defs>
  <g
     inkscape:label="Layer 1"
     inkscape:groupmode="layer"
     id="layer1"
     transform="translate(194.32904,1164.6028)">
    <path
       id="path1469"
       style="fill:none;fill-opacity:1;fill-rule:evenodd;stroke-width:0.47217"
       d="m 1213.7281,-159.3417 c -0.4138,0.53954 -0.8022,1.08297 -1.2185,1.62211 -3.3691,4.36308 -6.8194,8.71347 -10.3492,13.05142 -3.5298,4.33792 -7.1388,8.66346 -10.8252,12.97646 -3.6864,4.313 -7.4503,8.6138 -11.2892,12.90206 -7.678,8.57652 -15.6572,17.1037 -23.9211,25.582405 -8.2639,8.478705 -16.8121,16.909071 -25.6294,25.291494 -8.8173,8.382397 -17.9036,16.716983 -27.2417,25.004659 -9.3382,8.287676 -18.9283,16.528045 -28.7549,24.722534 -9.8266,8.1944635 -19.8893,16.3427305 -30.1718,24.4455156 -10.2824,8.1028114 -20.7848,16.1605384 -31.4906,24.1732064 -10.7058,8.012694 -21.61497,15.980383 -32.71165,23.904495 -11.09668,7.924086 -22.38063,15.804383 -33.83568,23.641447 -11.45503,7.837064 -23.08106,15.631001 -34.86195,23.382554 -11.78087,7.75155 -23.71688,15.46071 -35.79109,23.12831 -12.07423,7.6676 -24.287,15.29353 -36.62206,22.87871 -12.33504,7.58515 -24.79247,15.12945 -37.35586,22.63375 -12.56337,7.5043 -25.23279,14.96851 -37.992,22.39346 -12.75919,7.42495 -25.60794,14.81066 -38.53045,22.15782 -25.84503,14.6943 -51.98401,29.23445 -78.28722,43.6268 -26.3032,14.39233 -52.7708,28.63681 -79.27215,42.7395 -26.50136,14.10271 -53.03634,28.06406 -79.47578,41.88944 -26.43942,13.82538 -52.78316,27.51513 -78.9006,41.07553 -26.11744,13.5604 -52.00871,26.9911 -77.54411,40.29882 -25.53539,13.30772 -50.71502,26.49249 -75.40831,39.55986 -24.69329,13.06738 -48.90041,26.01762 -72.56043,38.86999 -23.66002,12.85235 -46.77253,25.60654 -69.27743,38.28241 -11.25244,6.33793 -22.353272,12.65645 -33.294089,18.9575 -10.940814,6.30105 -21.722056,12.58467 -32.336009,18.85363 -10.613954,6.26898 -21.060595,12.52304 -31.332453,18.76475 -10.2718603,6.24173 -20.3688919,12.47105 -30.283425,18.69032 -9.914532,6.2193 -19.646423,12.42873 -29.188396,18.6304 -9.541976,6.20165 -18.893718,12.39554 -28.047902,18.58439 -9.154181,6.18886 -18.110766,12.37252 -26.861926,18.5534 -8.75116,6.18088 -17.29706,12.35914 -25.62996,18.53684 -8.3329,6.1777 -16.45259,12.3549 -24.35199,18.53427 -7.89943,6.17937 -15.5784,12.36083 -23.0291,18.54669 -7.45069,6.18582 -14.67342,12.37588 -21.66016,18.57301 -0.9398,0.83359 -1.79211,1.66989 -2.72336,2.50372 v 481.46622 c 1.99406,2.0115 3.83984,4.0037 5.87303,6.0203 7.78542,7.7221 15.85582,15.4813 24.2006,23.2766 8.34474,7.7953 16.96368,15.6266 25.84492,23.4921 8.88124,7.8655 18.02513,15.7656 27.42003,23.6983 9.3949,7.9327 19.040671,15.8982 28.926401,23.8952 9.885731,7.997 20.01134,16.0251 30.36507,24.0833 10.353731,8.0582 20.935596,16.1461 31.734498,24.2626 10.7989025,8.1164 21.8149803,16.2614 33.036227,24.4331 11.221243,8.1717 22.647952,16.3699 34.268708,24.5939 11.620757,8.2239 23.435537,16.4735 35.432978,24.7468 11.997442,8.2732 24.177228,16.5704 36.528518,24.8899 12.3513,8.3196 24.87405,16.6615 37.55637,25.0243 4.39636,2.899 9.07133,5.8345 13.50563,8.7385 H 1213.7281 Z" />
    <g
       id="g44231"
       transform="matrix(2.9529621,0,0,2.9529621,-982.11578,-483.04775)"
       inkscape:export-filename="/mnt/Store/ACADEMIC/MCA/VSG/Synapse.png"
       inkscape:export-xdpi="96"
       inkscape:export-ydpi="96">
      <path
         style="fill:#ff0000;stroke-width:1.87869"
         d=""
         id="path95"
         transform="scale(0.26458333)" />
      <text
         xml:space="preserve"
         style="font-style:normal;font-weight:normal;font-size:47.819px;line-height:1.25;font-family:sans-serif;fill:#007aa8;fill-opacity:1;stroke:none;stroke-width:1.19548"
         x="400.75223"
         y="238.63045"
         id="text3046"
         inkscape:export-filename="/mnt/Store/ACADEMIC/MCA/VSG/Synapse.png"
         inkscape:export-xdpi="96"
         inkscape:export-ydpi="96"><tspan
           sodipodi:role="line"
           id="tspan3044"
           style="font-style:normal;font-variant:normal;font-weight:normal;font-stretch:normal;font-family:aakar;-inkscape-font-specification:aakar;fill:#007aa8;fill-opacity:1;stroke-width:1.19548"
           x="400.75223"
           y="238.63045">SYNAPSE</tspan></text>
      <g
         id="g28626"
         transform="translate(380.07051,124.7007)"
         style="fill:#007aa8;fill-opacity:1"
         inkscape:export-filename="/mnt/Store/ACADEMIC/MCA/VSG/Synapse.png"
         inkscape:export-xdpi="96"
         inkscape:export-ydpi="96">
        <path
           id="path28375"
           style="fill:#007aa8;fill-opacity:1;stroke-width:0.317788"
           d="m 178.671,124.79249 h -28.06857 v 0.44493 c 0,0.63099 -0.0112,1.2581 -0.0331,1.88102 -0.0219,0.62293 -0.0548,1.24159 -0.0982,1.85571 -0.0433,0.61411 -0.0975,1.22376 -0.16174,1.82831 -0.0642,0.60454 -0.13868,1.20411 -0.22325,1.79834 -0.0846,0.59422 -0.17929,1.18314 -0.2837,1.7663 -0.1044,0.58315 -0.2184,1.16035 -0.3421,1.73167 -0.12372,0.57134 -0.25697,1.13675 -0.39946,1.69551 -0.14249,0.55874 -0.29401,1.1108 -0.45475,1.65623 -0.16074,0.54542 -0.33054,1.08406 -0.50901,1.6154 -0.17847,0.53136 -0.36554,1.0555 -0.56121,1.572 -0.19567,0.51652 -0.40001,1.02558 -0.61236,1.52652 -0.21235,0.50093 -0.43296,0.99385 -0.66146,1.47846 -0.2285,0.48459 -0.46488,0.96082 -0.709,1.42833 -0.24412,0.46754 -0.49577,0.92646 -0.75499,1.37615 -0.25923,0.44966 -0.52617,0.8903 -0.79996,1.32138 -0.2738,0.43109 -0.55448,0.85225 -0.84232,1.264 -0.14392,0.20587 -0.28986,0.40939 -0.43719,0.61028 -0.14733,0.20093 -0.29632,0.3995 -0.447,0.59532 -0.15069,0.19581 -0.30285,0.38915 -0.45682,0.5798 -0.15396,0.19069 -0.30945,0.37838 -0.46663,0.5638 -0.15718,0.1854 -0.31613,0.36825 -0.47646,0.5483 -0.16033,0.18005 -0.32234,0.35764 -0.48576,0.53226 -0.16341,0.1746 -0.3281,0.34618 -0.49454,0.51523 -0.16643,0.16906 -0.33447,0.33522 -0.50385,0.49866 -0.16939,0.16343 -0.34036,0.32393 -0.51263,0.48162 -0.17228,0.15769 -0.34581,0.31268 -0.5209,0.46458 -0.17509,0.15187 -0.35182,0.30104 -0.52968,0.44701 -0.17785,0.14595 -0.3569,0.28895 -0.53743,0.42889 -0.18056,0.13997 -0.36253,0.27647 -0.54571,0.41032 -0.18316,0.13385 -0.36772,0.26458 -0.55345,0.39222 -0.18573,0.12763 -0.37247,0.2523 -0.56069,0.37364 -0.18822,0.12137 -0.37779,0.2395 -0.56844,0.35449 -0.19065,0.11496 -0.38267,0.22691 -0.57568,0.33539 -0.19302,0.1085 -0.38708,0.21381 -0.58239,0.31572 -0.19531,0.10192 -0.39157,0.20035 -0.58911,0.2956 -0.19754,0.0953 -0.39612,0.18695 -0.59583,0.27543 -0.1997,0.0885 -0.40074,0.17367 -0.60255,0.25529 -0.2018,0.0816 -0.40439,0.15992 -0.60823,0.23461 -0.20383,0.0747 -0.40863,0.14578 -0.61443,0.21341 -0.2058,0.0676 -0.41294,0.13174 -0.62064,0.19225 -0.20771,0.0605 -0.41626,0.11726 -0.6258,0.17052 -0.20955,0.0533 -0.41965,0.1029 -0.63097,0.14883 -0.21131,0.0459 -0.42363,0.0881 -0.63665,0.12663 -0.21302,0.0385 -0.42716,0.0734 -0.64182,0.10438 -0.21466,0.031 -0.42972,0.0583 -0.64596,0.0816 -0.21623,0.0233 -0.43338,0.0427 -0.65112,0.0584 -0.21774,0.0156 -0.43607,0.0278 -0.65526,0.0356 -0.21918,0.008 -0.43935,0.0119 -0.65991,0.0119 -0.22056,0 -0.4402,-0.004 -0.65939,-0.0119 -0.21918,-0.008 -0.43803,-0.0198 -0.65577,-0.0356 -0.21774,-0.0156 -0.43437,-0.035 -0.65061,-0.0584 -0.21623,-0.0233 -0.43181,-0.0507 -0.64647,-0.0816 -0.21466,-0.031 -0.4288,-0.0659 -0.64182,-0.10438 -0.21302,-0.0385 -0.42482,-0.0807 -0.63614,-0.12663 -0.21131,-0.0459 -0.42195,-0.0956 -0.63148,-0.14883 -0.20955,-0.0533 -0.4181,-0.11004 -0.6258,-0.17052 -0.20772,-0.0605 -0.41432,-0.12459 -0.62012,-0.19225 -0.20581,-0.0676 -0.41061,-0.13875 -0.61444,-0.21341 -0.20384,-0.0747 -0.40694,-0.15298 -0.60874,-0.23461 -0.20182,-0.0816 -0.40233,-0.16682 -0.60203,-0.25529 -0.19971,-0.0885 -0.39881,-0.18018 -0.59635,-0.27543 -0.19754,-0.0952 -0.3938,-0.19368 -0.58911,-0.2956 -0.19531,-0.10191 -0.38938,-0.20722 -0.58239,-0.31572 -0.19303,-0.10848 -0.38503,-0.22043 -0.57568,-0.33539 -0.19065,-0.11499 -0.38022,-0.23312 -0.56844,-0.35449 -0.18822,-0.12134 -0.37496,-0.24601 -0.56069,-0.37364 -0.18573,-0.12764 -0.37028,-0.25837 -0.55346,-0.39222 -0.18316,-0.13385 -0.36515,-0.27035 -0.5457,-0.41032 -0.18054,-0.13994 -0.35958,-0.28294 -0.53743,-0.42889 -0.17786,-0.14597 -0.3546,-0.29514 -0.52969,-0.44701 -0.1751,-0.1519 -0.34862,-0.30689 -0.52089,-0.46458 -0.17229,-0.15769 -0.34325,-0.31819 -0.51264,-0.48162 -0.16938,-0.16344 -0.33689,-0.3296 -0.50332,-0.49866 -0.16644,-0.16905 -0.33165,-0.34063 -0.49506,-0.51523 -0.16342,-0.17462 -0.32543,-0.35221 -0.48576,-0.53226 -0.16033,-0.18005 -0.31876,-0.3629 -0.47594,-0.5483 -0.15718,-0.18542 -0.3132,-0.37311 -0.46716,-0.5638 -0.15397,-0.19065 -0.30614,-0.38399 -0.45682,-0.5798 -0.15069,-0.19582 -0.29966,-0.39439 -0.447,-0.59532 -0.14733,-0.20089 -0.29274,-0.40441 -0.43666,-0.61028 -0.28784,-0.41175 -0.56906,-0.83291 -0.84285,-1.264 -0.2738,-0.43108 -0.54021,-0.87172 -0.79943,-1.32138 -0.25922,-0.44969 -0.51139,-0.90861 -0.75551,-1.37615 -0.24412,-0.46751 -0.4805,-0.94374 -0.709,-1.42833 -0.2285,-0.48461 -0.44911,-0.97753 -0.66146,-1.47846 -0.21234,-0.50094 -0.41618,-1.01 -0.61185,-1.52652 -0.19567,-0.5165 -0.38273,-1.04064 -0.56121,-1.572 -0.17846,-0.53134 -0.34827,-1.06998 -0.50901,-1.6154 -0.16075,-0.54543 -0.31279,-1.09749 -0.45527,-1.65623 -0.14249,-0.55876 -0.27575,-1.12417 -0.39945,-1.69551 -0.12372,-0.57132 -0.2377,-1.14852 -0.3421,-1.73167 -0.10441,-0.58316 -0.19914,-1.17208 -0.28371,-1.7663 -0.0846,-0.59423 -0.15902,-1.1938 -0.22324,-1.79834 -0.0642,-0.60455 -0.118406,-1.2142 -0.161748,-1.82831 -0.0433,-0.61412 -0.07567,-1.23278 -0.09767,-1.85571 -0.02191,-0.62292 -0.03307,-1.25003 -0.03307,-1.88102 v -0.44493 H 71.573664 v 11.14092 c 0,29.666 23.882675,53.54919 53.548666,53.54919 29.66599,0 53.54867,-23.88319 53.54867,-53.54919 z" />
        <path
           id="path28371"
           style="fill:#007aa8;fill-opacity:1;stroke-width:0.317788"
           d="m 125.12233,7.4626695 c -29.665991,0 -53.548666,23.8826685 -53.548666,53.5486675 v 11.14144 h 28.069087 v -0.444934 c 0,-0.630992 0.01117,-1.258094 0.03307,-1.881024 0.02191,-0.622929 0.05427,-1.242097 0.09767,-1.856216 0.0433,-0.614111 0.09751,-1.223256 0.161748,-1.827797 0.0642,-0.604549 0.138661,-1.204119 0.223241,-1.798339 0.0846,-0.59423 0.1793,-1.18315 0.28371,-1.7663 0.1044,-0.58316 0.21838,-1.160864 0.3421,-1.732195 0.1237,-0.571331 0.25696,-1.136237 0.39945,-1.694987 0.14248,-0.55876 0.29452,-1.111316 0.45527,-1.656747 0.16074,-0.545428 0.33055,-1.084064 0.50901,-1.615405 0.17848,-0.53135 0.36554,-1.055487 0.56121,-1.571996 0.19567,-0.516519 0.39951,-1.025064 0.61185,-1.526005 0.21235,-0.500931 0.43296,-0.993863 0.66146,-1.478463 0.2285,-0.4846 0.46488,-0.960816 0.709,-1.428337 0.24412,-0.467511 0.49629,-0.926462 0.75551,-1.376143 0.25922,-0.44967 0.52563,-0.890275 0.79943,-1.321366 0.27379,-0.43108 0.55501,-0.852781 0.84285,-1.264523 0.14392,-0.20587 0.28933,-0.409398 0.43666,-0.610299 0.14734,-0.20089 0.29631,-0.398975 0.447,-0.594794 0.15068,-0.195831 0.30285,-0.389151 0.45682,-0.57981 0.15396,-0.190662 0.30998,-0.378907 0.46716,-0.564306 0.15718,-0.185402 0.31561,-0.367721 0.47594,-0.547772 0.16033,-0.180049 0.32234,-0.357667 0.48576,-0.532268 0.16341,-0.174598 0.32862,-0.34667 0.49506,-0.515728 0.16643,-0.169061 0.33394,-0.335249 0.50332,-0.498679 0.16939,-0.16342 0.34035,-0.323924 0.51264,-0.481624 0.17227,-0.157699 0.34579,-0.312184 0.52089,-0.464055 0.17509,-0.151879 0.35183,-0.301051 0.52969,-0.447 0.17785,-0.14596 0.35689,-0.288965 0.53743,-0.428914 0.18055,-0.139951 0.36254,-0.276979 0.5457,-0.410829 0.18318,-0.133839 0.36773,-0.264583 0.55346,-0.392223 0.18573,-0.127641 0.37247,-0.25227 0.56069,-0.373621 0.18822,-0.121351 0.37779,-0.239541 0.56844,-0.3545 0.19065,-0.114972 0.38265,-0.226374 0.57568,-0.334864 0.19301,-0.108479 0.38708,-0.213834 0.58239,-0.315743 0.19531,-0.10191 0.39157,-0.20034 0.58911,-0.29559 0.19754,-0.0952 0.39664,-0.187471 0.59635,-0.275953 0.1997,-0.0885 0.40021,-0.173143 0.60203,-0.254764 0.2018,-0.0816 0.4049,-0.159941 0.60874,-0.234609 0.20383,-0.0747 0.40863,-0.145796 0.61444,-0.213423 0.2058,-0.0676 0.4124,-0.131747 0.62012,-0.192239 0.2077,-0.0605 0.41625,-0.117271 0.6258,-0.170532 0.20953,-0.0533 0.42017,-0.102888 0.63148,-0.148828 0.21132,-0.0459 0.42312,-0.0886 0.63614,-0.127124 0.21302,-0.0385 0.42716,-0.0729 0.64182,-0.10387 0.21466,-0.031 0.43024,-0.05825 0.64647,-0.08165 0.21624,-0.02339 0.43287,-0.04321 0.65061,-0.05891 0.21774,-0.01569 0.43659,-0.02724 0.65577,-0.03514 0.21919,-0.008 0.43883,-0.01188 0.65939,-0.01188 0.22056,0 0.44073,0.004 0.65991,0.01188 0.21919,0.008 0.43752,0.01953 0.65526,0.03514 0.21774,0.01569 0.43489,0.03551 0.65112,0.05891 0.21624,0.02339 0.4313,0.05065 0.64596,0.08165 0.21466,0.031 0.4288,0.0654 0.64182,0.10387 0.21302,0.0385 0.42534,0.08121 0.63665,0.127124 0.21132,0.0459 0.42142,0.0956 0.63097,0.148828 0.20954,0.0533 0.41809,0.110033 0.6258,0.170532 0.2077,0.0605 0.41484,0.124608 0.62064,0.192239 0.2058,0.0676 0.4106,0.138742 0.61443,0.213423 0.20384,0.0747 0.40643,0.152979 0.60823,0.234609 0.20181,0.0816 0.40285,0.166285 0.60255,0.254764 0.19971,0.0885 0.39829,0.180713 0.59583,0.275953 0.19754,0.0952 0.3938,0.19368 0.58911,0.29559 0.19531,0.101909 0.38937,0.207264 0.58239,0.315743 0.19301,0.10849 0.38503,0.219892 0.57568,0.334864 0.19065,0.114959 0.38022,0.233149 0.56844,0.3545 0.18822,0.121351 0.37496,0.24598 0.56069,0.373621 0.18573,0.12764 0.37029,0.258384 0.55345,0.392223 0.18318,0.13385 0.36515,0.270878 0.54571,0.410829 0.18053,0.139949 0.35958,0.282954 0.53743,0.428914 0.17786,0.145949 0.35459,0.295121 0.52968,0.447 0.17509,0.151871 0.34862,0.306356 0.5209,0.464055 0.17227,0.1577 0.34324,0.318204 0.51263,0.481624 0.16938,0.16343 0.33742,0.329618 0.50385,0.498679 0.16644,0.169058 0.33113,0.34113 0.49454,0.515728 0.16342,0.174601 0.32543,0.352219 0.48576,0.532268 0.16033,0.180051 0.31928,0.36237 0.47646,0.547772 0.15718,0.185399 0.31267,0.373644 0.46663,0.564306 0.15397,0.190659 0.30613,0.383979 0.45682,0.57981 0.15068,0.195819 0.29967,0.393904 0.447,0.594794 0.14733,0.200901 0.29327,0.404429 0.43719,0.610299 0.28784,0.411742 0.56852,0.833443 0.84232,1.264523 0.27379,0.431091 0.54073,0.871696 0.79996,1.321366 0.25922,0.449681 0.51087,0.908632 0.75499,1.376143 0.24412,0.467521 0.4805,0.943737 0.709,1.428337 0.2285,0.4846 0.44911,0.977532 0.66146,1.478463 0.21235,0.500941 0.41669,1.009486 0.61236,1.526005 0.19567,0.516509 0.38274,1.040646 0.56121,1.571996 0.17847,0.531341 0.34827,1.069977 0.50901,1.615405 0.16074,0.545431 0.31226,1.097987 0.45475,1.656747 0.14249,0.55875 0.27574,1.123656 0.39946,1.694987 0.1237,0.571331 0.2377,1.149035 0.3421,1.732195 0.10441,0.58315 0.19913,1.17207 0.2837,1.7663 0.0846,0.59422 0.15903,1.19379 0.22325,1.798339 0.0642,0.604541 0.1184,1.213686 0.16174,1.827797 0.0433,0.614119 0.0762,1.233287 0.0982,1.856216 0.0219,0.62293 0.0331,1.250032 0.0331,1.881024 v 0.444934 H 178.671 v -11.14144 c 0,-29.665999 -23.88268,-53.5486675 -53.54867,-53.5486675 z" />
      </g>
    </g>
    <path
       style="fill:url(#linearGradient5948);stroke:#000000;stroke-width:0.264583px;stroke-linecap:butt;stroke-linejoin:miter;stroke-opacity:1;fill-opacity:1"
       d="m 122.76452,1991.754 c -596.49203,-9.6683 -932.97374,-281.389 -844.35538,-486.4306 88.61835,-205.0417 602.31627,-343.3985 994.53738,-509.65735 392.2211,-166.25887 662.9444,-360.40928 736.21968,-610.1164 73.2753,-249.70712 -50.89805,-554.95521 -452.80452,-802.32325 -401.90647,-247.36805 -1081.51664,-436.84214 -1081.00752,-729.2499 0.50912,-292.4078 681.12409,-687.7295 1290.00827,-639.1054 608.88417,48.6242 1146.00227,541.1822 1411.86117,1162.14586 265.8589,620.9637025 260.4483,1370.2933 -170.5168,1871.15994 -430.965,500.8666 -1287.45026,753.2454 -1883.94228,743.5771 z"
       id="path1010"
       inkscape:path-effect="#path-effect1012"
       inkscape:original-d="M -137.24606,2253.8062 C -473.7275,1982.0857 -810.20921,1710.365 -1146.6912,1438.6441 -632.97243,1300.282 -119.27451,1161.9252 394.43343,1023.5654 665.16782,829.40745 935.89112,635.25705 1206.6196,441.1025 1082.4416,135.84247 958.26826,-169.4056 834.09223,-474.66007 154.45516,-664.14147 -525.15501,-853.61558 -1204.779,-1043.0937 c 680.64245,-395.3373 1361.25743,-790.659 2041.88577,-1185.9889 537.13983,492.5779 1074.25793,985.1359 1611.38653,1477.7034 -5.4105,749.3598647 -10.8211,1498.68946 -16.2321,2248.0338 -856.5193,252.3893 -1713.00459,504.7679 -2569.50726,757.1516 z" />
  </g>
</svg>
