<?xml version="1.0" encoding="UTF-8" standalone="no"?>
<!-- Created with Inkscape (http://www.inkscape.org/) -->

<svg
   width="128.17564mm"
   height="130.22235mm"
   viewBox="0 0 128.17564 130.22235"
   version="1.1"
   id="svg7566"
   inkscape:version="1.1.2 (0a00cf5339, 2022-02-04)"
   sodipodi:docname="AcceptFriend.svg"
   xmlns:inkscape="http://www.inkscape.org/namespaces/inkscape"
   xmlns:sodipodi="http://sodipodi.sourceforge.net/DTD/sodipodi-0.dtd"
   xmlns="http://www.w3.org/2000/svg"
   xmlns:svg="http://www.w3.org/2000/svg">
  <sodipodi:namedview
     id="namedview7568"
     pagecolor="#ffffff"
     bordercolor="#666666"
     borderopacity="1.0"
     inkscape:pageshadow="2"
     inkscape:pageopacity="0.0"
     inkscape:pagecheckerboard="0"
     inkscape:document-units="mm"
     showgrid="false"
     inkscape:zoom="0.39139945"
     inkscape:cx="62.595897"
     inkscape:cy="412.62194"
     inkscape:window-width="1440"
     inkscape:window-height="836"
     inkscape:window-x="0"
     inkscape:window-y="0"
     inkscape:window-maximized="1"
     inkscape:current-layer="layer1" />
  <defs
     id="defs7563">
    <inkscape:path-effect
       effect="bspline"
       id="path-effect11510"
       is_visible="true"
       lpeversion="1"
       weight="33.333333"
       steps="2"
       helper_size="0"
       apply_no_weight="true"
       apply_with_weight="true"
       only_selected="false" />
  </defs>
  <g
     inkscape:label="Layer 1"
     inkscape:groupmode="layer"
     id="layer1"
     transform="translate(18.027267,-72.574652)">
    <g
       id="g13589"
       transform="matrix(1.0967515,0,0,1.0967515,-61.889523,-71.207919)">
      <path
         fill-rule="evenodd"
         clip-rule="evenodd"
         d="m 81.739302,140.46589 c -12.796841,0 -23.170752,10.37391 -23.170752,23.17075 0,12.79684 10.373911,23.17075 23.170752,23.17075 12.797084,0 23.170758,-10.37391 23.170758,-23.17075 0,-12.79684 -10.373674,-23.17075 -23.170758,-23.17075 z m -15.853673,23.17075 c 0,-8.75577 7.097909,-15.85367 15.853673,-15.85367 8.755617,0 15.853672,7.0979 15.853672,15.85367 0,8.75576 -7.098055,15.85367 -15.853672,15.85367 -8.755764,0 -15.853673,-7.09791 -15.853673,-15.85367 z"
         fill="#877EFF"
         id="path2"
         style="fill:#000000;stroke-width:4.87805" />
      <path
         id="path8181"
         style="fill:#000000;stroke-width:4.87804"
         d="m 81.739503,194.1245 c -9.94796,0 -19.134489,2.29655 -25.960689,6.19704 -6.722689,3.84147 -11.844237,9.70583 -11.844237,16.97364 -2e-6,7.26781 5.121548,13.13217 11.844237,16.97364 6.8262,3.90049 16.012729,6.19704 25.960689,6.19704 7.04338,0 17.399391,-2.49096 19.416387,-3.20911 2.017,-0.71815 5.50143,-2.55916 3.94357,-5.46722 -1.55786,-2.90807 -9.391074,-0.4223 -11.249586,0.003 -1.858513,0.42578 -7.780504,1.35599 -12.110371,1.35599 -8.910545,0 -16.798073,-2.0718 -22.33042,-5.23327 -5.635858,-3.22049 -8.157641,-7.11175 -8.157641,-10.62054 0,-3.50878 2.521783,-7.40005 8.157641,-10.62054 5.532347,-3.16147 13.419875,-5.23327 22.33042,-5.23327 8.910738,0 16.797187,2.0718 22.329387,5.23327 3.08006,2.06128 5.16956,3.16814 6.7004,6.57475 1.53085,3.40662 3.25818,4.91688 4.53686,5.24653 1.27868,0.32965 3.98902,-0.90016 3.97044,-3.23315 -0.0579,-7.26758 -4.85448,-11.0994 -11.57692,-14.94087 -6.82635,-3.90049 -16.012355,-6.19704 -25.96017,-6.19704 z"
         sodipodi:nodetypes="scscszzzscscsczzscss" />
      <path
         id="rect11567"
         style="fill:#000000;fill-rule:evenodd;stroke:#000000;stroke-width:6.1702;stroke-linecap:round;stroke-linejoin:round;stroke-miterlimit:4;stroke-dasharray:none;stroke-opacity:1;paint-order:stroke fill markers"
         d="m 147.70435,204.04952 -32.09174,25.1 -9.80505,-10.0541 -2.47558,2.41358 11.9696,12.27425 34.53308,-27.01016 z" />
    </g>
  </g>
</svg>
