<?xml version="1.0" encoding="UTF-8" standalone="no"?>
<svg
   width="20"
   height="20"
   viewBox="0 0 20 20"
   fill="none"
   version="1.1"
   id="svg15"
   sodipodi:docname="posts.svg"
   inkscape:version="1.1.2 (0a00cf5339, 2022-02-04)"
   xmlns:inkscape="http://www.inkscape.org/namespaces/inkscape"
   xmlns:sodipodi="http://sodipodi.sourceforge.net/DTD/sodipodi-0.dtd"
   xmlns="http://www.w3.org/2000/svg"
   xmlns:svg="http://www.w3.org/2000/svg">
  <sodipodi:namedview
     id="namedview17"
     pagecolor="#ffffff"
     bordercolor="#666666"
     borderopacity="1.0"
     inkscape:pageshadow="2"
     inkscape:pageopacity="0.0"
     inkscape:pagecheckerboard="0"
     showgrid="false"
     inkscape:zoom="16.740952"
     inkscape:cx="9.7664697"
     inkscape:cy="6.6005804"
     inkscape:window-width="1440"
     inkscape:window-height="836"
     inkscape:window-x="0"
     inkscape:window-y="0"
     inkscape:window-maximized="1"
     inkscape:current-layer="svg15" />
  <g
     id="g1110"
     style="stroke:#ffffff;stroke-opacity:1">
    <path
       d="m 1.66675,9.99984 c 0,-3.92837 0,-5.89256 1.22039,-7.11295 C 4.10752,1.6665 6.07171,1.6665 10.0001,1.6665 c 3.9284,0 5.8925,0 7.1129,1.22039 1.2204,1.22039 1.2204,3.18458 1.2204,7.11295 0,3.92836 0,5.89256 -1.2204,7.11296 -1.2204,1.2204 -3.1845,1.2204 -7.1129,1.2204 -3.92839,0 -5.89258,0 -7.11296,-1.2204 C 1.66675,15.8924 1.66675,13.9282 1.66675,9.99984 Z"
       stroke="#877eff"
       stroke-width="1.5"
       id="path2"
       style="fill:none;stroke:#ffffff;stroke-opacity:1" />
    <circle
       cx="13.3334"
       cy="6.6666698"
       r="1.66667"
       stroke="#877eff"
       stroke-width="1.5"
       id="circle4"
       style="fill:none;stroke:#ffffff;stroke-opacity:1" />
    <path
       d="M 1.66675,10.4169 3.1264,9.13976 C 3.8858,8.47529 5.03031,8.5134 5.74382,9.22691 l 3.57477,3.57479 c 0.57269,0.5727 1.47421,0.6508 2.13681,0.1851 l 0.2485,-0.1747 c 0.9535,-0.6701 2.2436,-0.5925 3.1099,0.1872 l 2.6863,2.4176"
       stroke="#877eff"
       stroke-width="1.5"
       stroke-linecap="round"
       id="path6"
       style="fill:none;stroke:#ffffff;stroke-opacity:1" />
  </g>
  <defs
     id="defs13">
    <clipPath
       id="clip0_1607_406">
      <rect
         width="20"
         height="20"
         fill="white"
         id="rect10" />
    </clipPath>
  </defs>
</svg>
